<svg width="212" height="53" viewBox="0 0 212 53" fill="none" xmlns="http://www.w3.org/2000/svg">
<path d="M18.3242 12.6689V14.4121H3.63184V12.6689H18.3242ZM4.11328 1.82812V26H2.07129V1.82812H4.11328ZM19.9678 1.82812V26H17.9258V1.82812H19.9678ZM24.333 17.3008V16.7529C24.333 15.4469 24.5212 14.2406 24.8975 13.1338C25.2738 12.027 25.8105 11.0697 26.5078 10.2617C27.2161 9.45378 28.0628 8.82845 29.0479 8.38574C30.0329 7.93197 31.1286 7.70508 32.335 7.70508C33.5524 7.70508 34.6536 7.93197 35.6387 8.38574C36.6237 8.82845 37.4704 9.45378 38.1787 10.2617C38.887 11.0697 39.4294 12.027 39.8057 13.1338C40.182 14.2406 40.3701 15.4469 40.3701 16.7529V17.3008C40.3701 18.6068 40.182 19.8132 39.8057 20.9199C39.4294 22.0156 38.887 22.9674 38.1787 23.7754C37.4814 24.5833 36.6403 25.2142 35.6553 25.668C34.6702 26.1107 33.5745 26.332 32.3682 26.332C31.1507 26.332 30.0495 26.1107 29.0645 25.668C28.0794 25.2142 27.2327 24.5833 26.5244 23.7754C25.8161 22.9674 25.2738 22.0156 24.8975 20.9199C24.5212 19.8132 24.333 18.6068 24.333 17.3008ZM26.3086 16.7529V17.3008C26.3086 18.2858 26.4414 19.221 26.707 20.1064C26.9727 20.9808 27.36 21.7611 27.8691 22.4473C28.3783 23.1224 29.0091 23.6536 29.7617 24.041C30.5143 24.4284 31.3831 24.6221 32.3682 24.6221C33.3421 24.6221 34.1999 24.4284 34.9414 24.041C35.694 23.6536 36.3249 23.1224 36.834 22.4473C37.3431 21.7611 37.7249 20.9808 37.9795 20.1064C38.2451 19.221 38.3779 18.2858 38.3779 17.3008V16.7529C38.3779 15.779 38.2451 14.8548 37.9795 13.9805C37.7249 13.1061 37.3376 12.3258 36.8174 11.6396C36.3083 10.9535 35.6774 10.4111 34.9248 10.0127C34.1722 9.61426 33.3089 9.41504 32.335 9.41504C31.361 9.41504 30.4977 9.61426 29.7451 10.0127C29.0036 10.4111 28.3727 10.9535 27.8525 11.6396C27.3434 12.3258 26.9561 13.1061 26.6904 13.9805C26.4359 14.8548 26.3086 15.779 26.3086 16.7529ZM51.0273 8.03711V9.66406H42.0293V8.03711H51.0273ZM45.333 3.42188H47.3086V21.6338C47.3086 22.4639 47.4193 23.0892 47.6406 23.5098C47.862 23.9303 48.1497 24.2126 48.5039 24.3564C48.8581 24.5003 49.2399 24.5723 49.6494 24.5723C49.9482 24.5723 50.236 24.5557 50.5127 24.5225C50.7894 24.4782 51.0384 24.4339 51.2598 24.3896L51.3428 26.0664C51.0993 26.1439 50.7839 26.2048 50.3965 26.249C50.0091 26.3044 49.6217 26.332 49.2344 26.332C48.4707 26.332 47.7956 26.1937 47.209 25.917C46.6224 25.6292 46.1631 25.1423 45.8311 24.4561C45.499 23.7588 45.333 22.8125 45.333 21.6172V3.42188ZM61.8838 26.332C60.7106 26.332 59.6315 26.1162 58.6465 25.6846C57.6725 25.2529 56.8203 24.6442 56.0898 23.8584C55.3704 23.0726 54.8115 22.1429 54.4131 21.0693C54.0257 19.9847 53.832 18.8005 53.832 17.5166V16.8027C53.832 15.4193 54.0368 14.1686 54.4463 13.0508C54.8558 11.9329 55.4202 10.9756 56.1396 10.1787C56.859 9.38184 57.6781 8.77311 58.5967 8.35254C59.5264 7.9209 60.5003 7.70508 61.5186 7.70508C62.6585 7.70508 63.6712 7.90983 64.5566 8.31934C65.4421 8.71777 66.1836 9.28776 66.7812 10.0293C67.39 10.7598 67.8493 11.6286 68.1592 12.6357C68.4691 13.6318 68.624 14.7331 68.624 15.9395V17.1514H55.0273V15.458H66.6484V15.2256C66.6263 14.2184 66.4215 13.2777 66.0342 12.4033C65.6579 11.5179 65.0934 10.7985 64.3408 10.2451C63.5882 9.69173 62.6475 9.41504 61.5186 9.41504C60.6774 9.41504 59.9027 9.59212 59.1943 9.94629C58.4971 10.3005 57.8939 10.8096 57.3848 11.4736C56.8867 12.1266 56.4993 12.9069 56.2227 13.8145C55.957 14.7109 55.8242 15.707 55.8242 16.8027V17.5166C55.8242 18.5127 55.9681 19.4424 56.2559 20.3057C56.5547 21.1579 56.9753 21.9105 57.5176 22.5635C58.071 23.2165 58.724 23.7256 59.4766 24.0908C60.2292 24.4561 61.0592 24.6387 61.9668 24.6387C63.0293 24.6387 63.9701 24.445 64.7891 24.0576C65.6081 23.6592 66.3441 23.0339 66.9971 22.1816L68.2422 23.1445C67.8548 23.7201 67.3678 24.2513 66.7812 24.7383C66.2057 25.2253 65.514 25.6126 64.7061 25.9004C63.8981 26.1882 62.9574 26.332 61.8838 26.332ZM74.5 0.5V26H72.5244V0.5H74.5ZM96.4121 16.1553H89.5225V14.4121H96.4121C97.8509 14.4121 99.0186 14.1797 99.915 13.7148C100.823 13.2389 101.481 12.597 101.891 11.7891C102.311 10.9811 102.521 10.0736 102.521 9.06641C102.521 8.08138 102.311 7.17383 101.891 6.34375C101.481 5.51367 100.823 4.84961 99.915 4.35156C99.0186 3.84245 97.8509 3.58789 96.4121 3.58789H90.2363V26H88.1943V1.82812H96.4121C98.1829 1.82812 99.6715 2.13249 100.878 2.74121C102.095 3.34993 103.014 4.19661 103.634 5.28125C104.254 6.36589 104.563 7.61654 104.563 9.0332C104.563 10.5163 104.254 11.7946 103.634 12.8682C103.014 13.9307 102.101 14.7441 100.895 15.3086C99.6882 15.873 98.194 16.1553 96.4121 16.1553ZM119.155 22.7793V13.5156C119.155 12.6634 118.978 11.9274 118.624 11.3076C118.27 10.6878 117.75 10.2119 117.063 9.87988C116.377 9.54785 115.531 9.38184 114.523 9.38184C113.594 9.38184 112.764 9.54785 112.033 9.87988C111.314 10.2008 110.744 10.638 110.323 11.1914C109.914 11.7337 109.709 12.3369 109.709 13.001L107.717 12.9844C107.717 12.3092 107.883 11.6562 108.215 11.0254C108.547 10.3945 109.017 9.83008 109.626 9.33203C110.235 8.83398 110.96 8.44108 111.801 8.15332C112.653 7.85449 113.588 7.70508 114.606 7.70508C115.89 7.70508 117.019 7.9209 117.993 8.35254C118.978 8.78418 119.747 9.43164 120.301 10.2949C120.854 11.1582 121.131 12.2428 121.131 13.5488V22.2314C121.131 22.8512 121.175 23.4932 121.264 24.1572C121.363 24.8213 121.502 25.3691 121.679 25.8008V26H119.57C119.438 25.6016 119.332 25.1035 119.255 24.5059C119.188 23.8971 119.155 23.3216 119.155 22.7793ZM119.62 15.541L119.653 17.0684H115.752C114.734 17.0684 113.821 17.1624 113.013 17.3506C112.216 17.5277 111.541 17.7933 110.987 18.1475C110.434 18.4906 110.008 18.9056 109.709 19.3926C109.421 19.8796 109.277 20.4329 109.277 21.0527C109.277 21.6947 109.438 22.2812 109.759 22.8125C110.091 23.3438 110.556 23.7699 111.153 24.0908C111.762 24.4007 112.481 24.5557 113.312 24.5557C114.418 24.5557 115.392 24.3509 116.233 23.9414C117.086 23.5319 117.788 22.9951 118.342 22.3311C118.895 21.667 119.266 20.9421 119.454 20.1562L120.317 21.3018C120.174 21.8551 119.908 22.4251 119.521 23.0117C119.144 23.5872 118.652 24.1296 118.043 24.6387C117.434 25.1367 116.715 25.5462 115.885 25.8672C115.066 26.1771 114.136 26.332 113.096 26.332C111.923 26.332 110.899 26.1107 110.024 25.668C109.161 25.2253 108.486 24.6221 107.999 23.8584C107.523 23.0837 107.285 22.2093 107.285 21.2354C107.285 20.3499 107.473 19.5586 107.85 18.8613C108.226 18.153 108.768 17.5553 109.477 17.0684C110.196 16.5703 111.059 16.194 112.066 15.9395C113.085 15.6738 114.225 15.541 115.486 15.541H119.62ZM128.186 11.0088V26H126.21V8.03711H128.136L128.186 11.0088ZM134.544 7.9043L134.494 9.73047C134.273 9.69727 134.057 9.6696 133.847 9.64746C133.636 9.62533 133.41 9.61426 133.166 9.61426C132.303 9.61426 131.545 9.77474 130.892 10.0957C130.25 10.4056 129.707 10.8428 129.265 11.4072C128.822 11.9606 128.484 12.6136 128.252 13.3662C128.02 14.1077 127.887 14.9046 127.854 15.7568L127.123 16.0391C127.123 14.8659 127.245 13.7757 127.488 12.7686C127.732 11.7614 128.103 10.8815 128.601 10.1289C129.11 9.36523 129.746 8.77311 130.51 8.35254C131.285 7.9209 132.192 7.70508 133.232 7.70508C133.487 7.70508 133.736 7.72721 133.979 7.77148C134.234 7.80469 134.422 7.84896 134.544 7.9043ZM147.675 22.7793V13.5156C147.675 12.6634 147.498 11.9274 147.144 11.3076C146.789 10.6878 146.269 10.2119 145.583 9.87988C144.897 9.54785 144.05 9.38184 143.043 9.38184C142.113 9.38184 141.283 9.54785 140.553 9.87988C139.833 10.2008 139.263 10.638 138.843 11.1914C138.433 11.7337 138.229 12.3369 138.229 13.001L136.236 12.9844C136.236 12.3092 136.402 11.6562 136.734 11.0254C137.066 10.3945 137.537 9.83008 138.146 9.33203C138.754 8.83398 139.479 8.44108 140.32 8.15332C141.173 7.85449 142.108 7.70508 143.126 7.70508C144.41 7.70508 145.539 7.9209 146.513 8.35254C147.498 8.78418 148.267 9.43164 148.82 10.2949C149.374 11.1582 149.65 12.2428 149.65 13.5488V22.2314C149.65 22.8512 149.695 23.4932 149.783 24.1572C149.883 24.8213 150.021 25.3691 150.198 25.8008V26H148.09C147.957 25.6016 147.852 25.1035 147.774 24.5059C147.708 23.8971 147.675 23.3216 147.675 22.7793ZM148.14 15.541L148.173 17.0684H144.271C143.253 17.0684 142.34 17.1624 141.532 17.3506C140.735 17.5277 140.06 17.7933 139.507 18.1475C138.953 18.4906 138.527 18.9056 138.229 19.3926C137.941 19.8796 137.797 20.4329 137.797 21.0527C137.797 21.6947 137.957 22.2812 138.278 22.8125C138.61 23.3438 139.075 23.7699 139.673 24.0908C140.282 24.4007 141.001 24.5557 141.831 24.5557C142.938 24.5557 143.912 24.3509 144.753 23.9414C145.605 23.5319 146.308 22.9951 146.861 22.3311C147.415 21.667 147.785 20.9421 147.974 20.1562L148.837 21.3018C148.693 21.8551 148.427 22.4251 148.04 23.0117C147.664 23.5872 147.171 24.1296 146.562 24.6387C145.954 25.1367 145.234 25.5462 144.404 25.8672C143.585 26.1771 142.656 26.332 141.615 26.332C140.442 26.332 139.418 26.1107 138.544 25.668C137.681 25.2253 137.006 24.6221 136.519 23.8584C136.043 23.0837 135.805 22.2093 135.805 21.2354C135.805 20.3499 135.993 19.5586 136.369 18.8613C136.745 18.153 137.288 17.5553 137.996 17.0684C138.715 16.5703 139.579 16.194 140.586 15.9395C141.604 15.6738 142.744 15.541 144.006 15.541H148.14ZM166.4 22.5137V0.5H168.393V26H166.533L166.4 22.5137ZM153.933 17.2012V16.8525C153.933 15.458 154.093 14.2018 154.414 13.084C154.735 11.9551 155.194 10.9922 155.792 10.1953C156.401 9.38737 157.131 8.77311 157.983 8.35254C158.836 7.9209 159.799 7.70508 160.872 7.70508C161.924 7.70508 162.853 7.87663 163.661 8.21973C164.469 8.56283 165.161 9.05534 165.736 9.69727C166.323 10.3392 166.793 11.1029 167.147 11.9883C167.513 12.8737 167.778 13.8587 167.944 14.9434V19.376C167.812 20.3942 167.568 21.3294 167.214 22.1816C166.86 23.0228 166.389 23.7588 165.803 24.3896C165.216 25.0094 164.508 25.4909 163.678 25.834C162.859 26.166 161.912 26.332 160.839 26.332C159.776 26.332 158.819 26.1107 157.967 25.668C157.115 25.2253 156.39 24.5999 155.792 23.792C155.194 22.973 154.735 22.0046 154.414 20.8867C154.093 19.7689 153.933 18.5404 153.933 17.2012ZM155.925 16.8525V17.2012C155.925 18.2526 156.03 19.2266 156.24 20.123C156.451 21.0195 156.771 21.7998 157.203 22.4639C157.635 23.1279 158.183 23.6481 158.847 24.0244C159.511 24.4007 160.297 24.5889 161.204 24.5889C162.344 24.5889 163.301 24.373 164.076 23.9414C164.851 23.4987 165.471 22.9176 165.936 22.1982C166.4 21.4678 166.738 20.6709 166.948 19.8076V14.6445C166.815 14.0579 166.622 13.4603 166.367 12.8516C166.113 12.2428 165.764 11.6839 165.321 11.1748C164.89 10.6546 164.336 10.2396 163.661 9.92969C162.997 9.60872 162.189 9.44824 161.237 9.44824C160.319 9.44824 159.527 9.63639 158.863 10.0127C158.199 10.389 157.646 10.9147 157.203 11.5898C156.771 12.2539 156.451 13.0342 156.24 13.9307C156.03 14.8271 155.925 15.8011 155.925 16.8525ZM175.58 8.03711V26H173.604V8.03711H175.58ZM173.256 2.84082C173.256 2.46452 173.372 2.14909 173.604 1.89453C173.848 1.62891 174.18 1.49609 174.601 1.49609C175.021 1.49609 175.353 1.62891 175.597 1.89453C175.851 2.14909 175.979 2.46452 175.979 2.84082C175.979 3.20605 175.851 3.52148 175.597 3.78711C175.353 4.04167 175.021 4.16895 174.601 4.16895C174.18 4.16895 173.848 4.04167 173.604 3.78711C173.372 3.52148 173.256 3.20605 173.256 2.84082ZM191.517 21.418C191.517 20.931 191.395 20.4495 191.151 19.9736C190.908 19.4977 190.438 19.0605 189.74 18.6621C189.054 18.2637 188.041 17.9261 186.702 17.6494C185.706 17.4281 184.815 17.179 184.029 16.9023C183.255 16.6257 182.602 16.2936 182.07 15.9062C181.539 15.5189 181.135 15.054 180.858 14.5117C180.582 13.9694 180.443 13.3275 180.443 12.5859C180.443 11.9219 180.587 11.2965 180.875 10.71C181.174 10.1123 181.594 9.59212 182.137 9.14941C182.69 8.69564 183.354 8.34147 184.129 8.08691C184.915 7.83236 185.795 7.70508 186.769 7.70508C188.152 7.70508 189.336 7.94303 190.321 8.41895C191.317 8.88379 192.076 9.52018 192.596 10.3281C193.127 11.1361 193.393 12.0492 193.393 13.0674H191.417C191.417 12.4476 191.234 11.861 190.869 11.3076C190.515 10.7542 189.989 10.3005 189.292 9.94629C188.606 9.59212 187.765 9.41504 186.769 9.41504C185.739 9.41504 184.904 9.56999 184.262 9.87988C183.62 10.1898 183.149 10.5827 182.851 11.0586C182.563 11.5345 182.419 12.027 182.419 12.5361C182.419 12.9346 182.48 13.2998 182.602 13.6318C182.734 13.9528 182.967 14.2516 183.299 14.5283C183.642 14.805 184.129 15.0651 184.76 15.3086C185.391 15.5521 186.21 15.79 187.217 16.0225C188.667 16.3434 189.851 16.7363 190.77 17.2012C191.699 17.6549 192.385 18.2194 192.828 18.8945C193.271 19.5586 193.492 20.3665 193.492 21.3184C193.492 22.0599 193.337 22.7406 193.027 23.3604C192.717 23.9691 192.269 24.4948 191.683 24.9375C191.107 25.3802 190.41 25.7233 189.591 25.9668C188.783 26.2103 187.875 26.332 186.868 26.332C185.352 26.332 184.068 26.083 183.017 25.585C181.976 25.0758 181.185 24.4118 180.643 23.5928C180.111 22.7627 179.846 21.8828 179.846 20.9531H181.821C181.888 21.8828 182.181 22.6188 182.701 23.1611C183.221 23.6924 183.858 24.0687 184.61 24.29C185.374 24.5114 186.127 24.6221 186.868 24.6221C187.886 24.6221 188.739 24.4727 189.425 24.1738C190.111 23.875 190.631 23.4821 190.985 22.9951C191.34 22.5081 191.517 21.9824 191.517 21.418ZM204.681 26.332C203.507 26.332 202.428 26.1162 201.443 25.6846C200.469 25.2529 199.617 24.6442 198.887 23.8584C198.167 23.0726 197.608 22.1429 197.21 21.0693C196.823 19.9847 196.629 18.8005 196.629 17.5166V16.8027C196.629 15.4193 196.834 14.1686 197.243 13.0508C197.653 11.9329 198.217 10.9756 198.937 10.1787C199.656 9.38184 200.475 8.77311 201.394 8.35254C202.323 7.9209 203.297 7.70508 204.315 7.70508C205.455 7.70508 206.468 7.90983 207.354 8.31934C208.239 8.71777 208.98 9.28776 209.578 10.0293C210.187 10.7598 210.646 11.6286 210.956 12.6357C211.266 13.6318 211.421 14.7331 211.421 15.9395V17.1514H197.824V15.458H209.445V15.2256C209.423 14.2184 209.218 13.2777 208.831 12.4033C208.455 11.5179 207.89 10.7985 207.138 10.2451C206.385 9.69173 205.444 9.41504 204.315 9.41504C203.474 9.41504 202.7 9.59212 201.991 9.94629C201.294 10.3005 200.691 10.8096 200.182 11.4736C199.684 12.1266 199.296 12.9069 199.02 13.8145C198.754 14.7109 198.621 15.707 198.621 16.8027V17.5166C198.621 18.5127 198.765 19.4424 199.053 20.3057C199.352 21.1579 199.772 21.9105 200.314 22.5635C200.868 23.2165 201.521 23.7256 202.273 24.0908C203.026 24.4561 203.856 24.6387 204.764 24.6387C205.826 24.6387 206.767 24.445 207.586 24.0576C208.405 23.6592 209.141 23.0339 209.794 22.1816L211.039 23.1445C210.652 23.7201 210.165 24.2513 209.578 24.7383C209.003 25.2253 208.311 25.6126 207.503 25.9004C206.695 26.1882 205.754 26.332 204.681 26.332Z" fill="#565555"/>
<path d="M12.5352 43.3418V45.0176C12.5352 46.1133 12.3919 47.1051 12.1055 47.9932C11.8262 48.874 11.418 49.6296 10.8809 50.2598C10.3509 50.89 9.71354 51.3734 8.96875 51.71C8.22396 52.0465 7.38607 52.2148 6.45508 52.2148C5.54557 52.2148 4.71484 52.0465 3.96289 51.71C3.2181 51.3734 2.57715 50.89 2.04004 50.2598C1.50293 49.6296 1.08757 48.874 0.793945 47.9932C0.500326 47.1051 0.353516 46.1133 0.353516 45.0176V43.3418C0.353516 42.2461 0.496745 41.2578 0.783203 40.377C1.07682 39.4889 1.49219 38.7298 2.0293 38.0996C2.56641 37.4694 3.20736 36.986 3.95215 36.6494C4.69694 36.3128 5.52409 36.1445 6.43359 36.1445C7.36458 36.1445 8.20247 36.3128 8.94727 36.6494C9.69206 36.986 10.333 37.4694 10.8701 38.0996C11.4072 38.7298 11.819 39.4889 12.1055 40.377C12.3919 41.2578 12.5352 42.2461 12.5352 43.3418ZM11.2246 45.0176V43.3203C11.2246 42.3965 11.1172 41.5658 10.9023 40.8281C10.6947 40.0905 10.3831 39.4603 9.96777 38.9375C9.55957 38.4147 9.05827 38.0137 8.46387 37.7344C7.86947 37.4551 7.19271 37.3154 6.43359 37.3154C5.69596 37.3154 5.03353 37.4551 4.44629 37.7344C3.85905 38.0137 3.35775 38.4147 2.94238 38.9375C2.53418 39.4603 2.21908 40.0905 1.99707 40.8281C1.78223 41.5658 1.6748 42.3965 1.6748 43.3203V45.0176C1.6748 45.9486 1.78223 46.7865 1.99707 47.5312C2.21908 48.2689 2.53776 48.9027 2.95312 49.4326C3.36849 49.9554 3.86979 50.3564 4.45703 50.6357C5.05143 50.915 5.71745 51.0547 6.45508 51.0547C7.22135 51.0547 7.89811 50.915 8.48535 50.6357C9.07259 50.3564 9.57031 49.9554 9.97852 49.4326C10.3867 48.9027 10.6947 48.2689 10.9023 47.5312C11.1172 46.7865 11.2246 45.9486 11.2246 45.0176ZM16.6035 42.8584V52H15.3252V40.377H16.5498L16.6035 42.8584ZM16.3135 45.4688L15.7441 45.1465C15.7871 44.459 15.9268 43.8145 16.1631 43.2129C16.3994 42.6113 16.7181 42.0814 17.1191 41.623C17.5273 41.1647 18.0036 40.8066 18.5479 40.5488C19.0993 40.291 19.708 40.1621 20.374 40.1621C20.9541 40.1621 21.4733 40.2409 21.9316 40.3984C22.39 40.556 22.7803 40.8066 23.1025 41.1504C23.4248 41.4941 23.6683 41.9346 23.833 42.4717C24.0049 43.0088 24.0908 43.6641 24.0908 44.4375V52H22.8018V44.4268C22.8018 43.6247 22.6908 42.998 22.4688 42.5469C22.2467 42.0885 21.9316 41.7627 21.5234 41.5693C21.1152 41.376 20.6318 41.2793 20.0732 41.2793C19.4574 41.2793 18.9167 41.4154 18.4512 41.6875C17.9928 41.9525 17.6061 42.2998 17.291 42.7295C16.9831 43.152 16.7467 43.6068 16.582 44.0938C16.4173 44.5736 16.3278 45.0319 16.3135 45.4688ZM37.4053 36.3594V52H36.0947V36.3594H37.4053ZM42.7656 36.3594V37.498H30.7451V36.3594H42.7656ZM46.0391 35.5V52H44.7607V35.5H46.0391ZM45.749 45.4688L45.1797 45.1465C45.2227 44.459 45.3623 43.8145 45.5986 43.2129C45.835 42.6113 46.1536 42.0814 46.5547 41.623C46.9629 41.1647 47.4391 40.8066 47.9834 40.5488C48.5348 40.291 49.1436 40.1621 49.8096 40.1621C50.3896 40.1621 50.9089 40.2409 51.3672 40.3984C51.8255 40.556 52.2158 40.8066 52.5381 41.1504C52.8604 41.4941 53.1038 41.9346 53.2686 42.4717C53.4404 43.0088 53.5264 43.6641 53.5264 44.4375V52H52.2373V44.4268C52.2373 43.6247 52.1263 42.998 51.9043 42.5469C51.6823 42.0885 51.3672 41.7627 50.959 41.5693C50.5508 41.376 50.0674 41.2793 49.5088 41.2793C48.8929 41.2793 48.3522 41.4154 47.8867 41.6875C47.4284 41.9525 47.0417 42.2998 46.7266 42.7295C46.4186 43.152 46.1823 43.6068 46.0176 44.0938C45.8529 44.5736 45.7633 45.0319 45.749 45.4688ZM61.0752 52.2148C60.3161 52.2148 59.6178 52.0752 58.9805 51.7959C58.3503 51.5166 57.7988 51.1227 57.3262 50.6143C56.8607 50.1058 56.499 49.5042 56.2412 48.8096C55.9906 48.1077 55.8652 47.3415 55.8652 46.5107V46.0488C55.8652 45.1536 55.9977 44.3444 56.2627 43.6211C56.5277 42.8978 56.8929 42.2783 57.3584 41.7627C57.8239 41.2471 58.3538 40.8532 58.9482 40.5811C59.5498 40.3018 60.18 40.1621 60.8389 40.1621C61.5765 40.1621 62.2318 40.2946 62.8047 40.5596C63.3776 40.8174 63.8574 41.1862 64.2441 41.666C64.638 42.1387 64.9352 42.7008 65.1357 43.3525C65.3363 43.9971 65.4365 44.7096 65.4365 45.4902V46.2744H56.6387V45.1787H64.1582V45.0283C64.1439 44.3766 64.0114 43.7679 63.7607 43.2021C63.5173 42.6292 63.152 42.1637 62.665 41.8057C62.1781 41.4476 61.5693 41.2686 60.8389 41.2686C60.2946 41.2686 59.7933 41.3831 59.335 41.6123C58.8838 41.8415 58.4935 42.1709 58.1641 42.6006C57.8418 43.0231 57.5911 43.528 57.4121 44.1152C57.2402 44.6953 57.1543 45.3398 57.1543 46.0488V46.5107C57.1543 47.1553 57.2474 47.7568 57.4336 48.3154C57.627 48.8669 57.8991 49.3538 58.25 49.7764C58.6081 50.1989 59.0306 50.5283 59.5176 50.7646C60.0046 51.001 60.5417 51.1191 61.1289 51.1191C61.8164 51.1191 62.4251 50.9938 62.9551 50.7432C63.485 50.4854 63.9613 50.0807 64.3838 49.5293L65.1895 50.1523C64.9388 50.5247 64.6237 50.8685 64.2441 51.1836C63.8717 51.4987 63.4242 51.7493 62.9014 51.9355C62.3786 52.1217 61.7699 52.2148 61.0752 52.2148ZM84.7881 36.3594V52H83.4561L74.4648 38.6367V52H73.1436V36.3594H74.4648L83.4775 49.7227V36.3594H84.7881ZM89.6621 40.377V52H88.3838V40.377H89.6621ZM88.1582 37.0146C88.1582 36.7712 88.2334 36.5671 88.3838 36.4023C88.5413 36.2305 88.7562 36.1445 89.0283 36.1445C89.3005 36.1445 89.5153 36.2305 89.6729 36.4023C89.8376 36.5671 89.9199 36.7712 89.9199 37.0146C89.9199 37.251 89.8376 37.4551 89.6729 37.627C89.5153 37.7917 89.3005 37.874 89.0283 37.874C88.7562 37.874 88.5413 37.7917 88.3838 37.627C88.2334 37.4551 88.1582 37.251 88.1582 37.0146ZM94.3535 35.5V52H93.0752V35.5H94.3535ZM102.106 52.2148C101.347 52.2148 100.649 52.0752 100.012 51.7959C99.3815 51.5166 98.8301 51.1227 98.3574 50.6143C97.8919 50.1058 97.5303 49.5042 97.2725 48.8096C97.0218 48.1077 96.8965 47.3415 96.8965 46.5107V46.0488C96.8965 45.1536 97.029 44.3444 97.2939 43.6211C97.5589 42.8978 97.9242 42.2783 98.3896 41.7627C98.8551 41.2471 99.3851 40.8532 99.9795 40.5811C100.581 40.3018 101.211 40.1621 101.87 40.1621C102.608 40.1621 103.263 40.2946 103.836 40.5596C104.409 40.8174 104.889 41.1862 105.275 41.666C105.669 42.1387 105.966 42.7008 106.167 43.3525C106.368 43.9971 106.468 44.7096 106.468 45.4902V46.2744H97.6699V45.1787H105.189V45.0283C105.175 44.3766 105.043 43.7679 104.792 43.2021C104.549 42.6292 104.183 42.1637 103.696 41.8057C103.209 41.4476 102.601 41.2686 101.87 41.2686C101.326 41.2686 100.825 41.3831 100.366 41.6123C99.915 41.8415 99.5247 42.1709 99.1953 42.6006C98.873 43.0231 98.6224 43.528 98.4434 44.1152C98.2715 44.6953 98.1855 45.3398 98.1855 46.0488V46.5107C98.1855 47.1553 98.2786 47.7568 98.4648 48.3154C98.6582 48.8669 98.9303 49.3538 99.2812 49.7764C99.6393 50.1989 100.062 50.5283 100.549 50.7646C101.036 51.001 101.573 51.1191 102.16 51.1191C102.848 51.1191 103.456 50.9938 103.986 50.7432C104.516 50.4854 104.993 50.0807 105.415 49.5293L106.221 50.1523C105.97 50.5247 105.655 50.8685 105.275 51.1836C104.903 51.4987 104.455 51.7493 103.933 51.9355C103.41 52.1217 102.801 52.2148 102.106 52.2148Z" fill="#565555"/>
</svg>
